<svg id="visual" viewBox="0 0 900 600" width="900" height="600" xmlns="http://www.w3.org/2000/svg" xmlns:xlink="http://www.w3.org/1999/xlink" version="1.1"><rect x="0" y="0" width="900" height="600" fill="#140021"></rect><path d="M0 282L129 282L129 307L257 307L257 298L386 298L386 316L514 316L514 348L643 348L643 376L771 376L771 354L900 354L900 360L900 601L900 601L771 601L771 601L643 601L643 601L514 601L514 601L386 601L386 601L257 601L257 601L129 601L129 601L0 601Z" fill="#9900ff"></path><path d="M0 423L129 423L129 456L257 456L257 368L386 368L386 391L514 391L514 444L643 444L643 392L771 392L771 368L900 368L900 450L900 601L900 601L771 601L771 601L643 601L643 601L514 601L514 601L386 601L386 601L257 601L257 601L129 601L129 601L0 601Z" fill="#7700c6"></path><path d="M0 517L129 517L129 500L257 500L257 449L386 449L386 486L514 486L514 492L643 492L643 537L771 537L771 465L900 465L900 457L900 601L900 601L771 601L771 601L643 601L643 601L514 601L514 601L386 601L386 601L257 601L257 601L129 601L129 601L0 601Z" fill="#560090"></path></svg>