<svg id="visual" viewBox="0 0 900 600" width="900" height="600" xmlns="http://www.w3.org/2000/svg" xmlns:xlink="http://www.w3.org/1999/xlink" version="1.1"><g stroke-width="1" stroke-linejoin="bevel"><path d="M411 297L526 285L486 228Z" fill="#297ea6" stroke="#297ea6"></path><path d="M486 228L431 179L411 297Z" fill="#19435d" stroke="#19435d"></path><path d="M411 297L426 399L526 285Z" fill="#15384f" stroke="#15384f"></path><path d="M426 399L484 428L526 285Z" fill="#297ea6" stroke="#297ea6"></path><path d="M608 409L613 314L526 285Z" fill="#205a7a" stroke="#205a7a"></path><path d="M526 285L583 189L486 228Z" fill="#081a28" stroke="#081a28"></path><path d="M486 228L583 189L431 179Z" fill="#00101c" stroke="#00101c"></path><path d="M613 314L583 189L526 285Z" fill="#15384f" stroke="#15384f"></path><path d="M431 179L329 194L411 297Z" fill="#246688" stroke="#246688"></path><path d="M411 297L332 398L426 399Z" fill="#00101c" stroke="#00101c"></path><path d="M264 280L332 398L411 297Z" fill="#19435d" stroke="#19435d"></path><path d="M374 530L505 520L484 428Z" fill="#277297" stroke="#277297"></path><path d="M484 428L608 409L526 285Z" fill="#205a7a" stroke="#205a7a"></path><path d="M329 194L264 280L411 297Z" fill="#246688" stroke="#246688"></path><path d="M583 189L464 67L431 179Z" fill="#297ea6" stroke="#297ea6"></path><path d="M431 179L438 65L329 194Z" fill="#19435d" stroke="#19435d"></path><path d="M464 67L438 65L431 179Z" fill="#081a28" stroke="#081a28"></path><path d="M613 314L661 176L583 189Z" fill="#297ea6" stroke="#297ea6"></path><path d="M583 189L627 122L464 67Z" fill="#0c2435" stroke="#0c2435"></path><path d="M725 290L661 176L613 314Z" fill="#277297" stroke="#277297"></path><path d="M661 176L627 122L583 189Z" fill="#1d4e6b" stroke="#1d4e6b"></path><path d="M374 530L484 428L426 399Z" fill="#246688" stroke="#246688"></path><path d="M484 428L505 520L608 409Z" fill="#0c2435" stroke="#0c2435"></path><path d="M203 174L264 280L329 194Z" fill="#297ea6" stroke="#297ea6"></path><path d="M203 174L212 265L264 280Z" fill="#081a28" stroke="#081a28"></path><path d="M264 280L179 402L332 398Z" fill="#277297" stroke="#277297"></path><path d="M691 418L613 314L608 409Z" fill="#15384f" stroke="#15384f"></path><path d="M691 418L725 290L613 314Z" fill="#00101c" stroke="#00101c"></path><path d="M675 469L691 418L608 409Z" fill="#205a7a" stroke="#205a7a"></path><path d="M319 530L374 530L332 398Z" fill="#297ea6" stroke="#297ea6"></path><path d="M332 398L374 530L426 399Z" fill="#19435d" stroke="#19435d"></path><path d="M627 535L675 469L608 409Z" fill="#15384f" stroke="#15384f"></path><path d="M438 65L292 67L329 194Z" fill="#0c2435" stroke="#0c2435"></path><path d="M239 89L203 174L329 194Z" fill="#00101c" stroke="#00101c"></path><path d="M201 516L319 530L332 398Z" fill="#15384f" stroke="#15384f"></path><path d="M438 65L416 0L292 67Z" fill="#00101c" stroke="#00101c"></path><path d="M464 67L416 0L438 65Z" fill="#081a28" stroke="#081a28"></path><path d="M522 0L416 0L464 67Z" fill="#19435d" stroke="#19435d"></path><path d="M627 122L522 0L464 67Z" fill="#15384f" stroke="#15384f"></path><path d="M505 520L627 535L608 409Z" fill="#19435d" stroke="#19435d"></path><path d="M635 600L627 535L505 520Z" fill="#205a7a" stroke="#205a7a"></path><path d="M464 600L505 520L374 530Z" fill="#15384f" stroke="#15384f"></path><path d="M661 176L715 114L627 122Z" fill="#15384f" stroke="#15384f"></path><path d="M627 122L638 0L522 0Z" fill="#19435d" stroke="#19435d"></path><path d="M766 162L715 114L661 176Z" fill="#15384f" stroke="#15384f"></path><path d="M289 0L239 89L292 67Z" fill="#246688" stroke="#246688"></path><path d="M292 67L239 89L329 194Z" fill="#081a28" stroke="#081a28"></path><path d="M691 418L770 301L725 290Z" fill="#277297" stroke="#277297"></path><path d="M725 290L766 162L661 176Z" fill="#297ea6" stroke="#297ea6"></path><path d="M811 395L770 301L691 418Z" fill="#0c2435" stroke="#0c2435"></path><path d="M96 319L179 402L212 265Z" fill="#297ea6" stroke="#297ea6"></path><path d="M212 265L179 402L264 280Z" fill="#00101c" stroke="#00101c"></path><path d="M374 600L464 600L374 530Z" fill="#1d4e6b" stroke="#1d4e6b"></path><path d="M770 301L766 162L725 290Z" fill="#112e42" stroke="#112e42"></path><path d="M294 600L374 600L319 530Z" fill="#277297" stroke="#277297"></path><path d="M319 530L374 600L374 530Z" fill="#297ea6" stroke="#297ea6"></path><path d="M668 0L627 122L715 114Z" fill="#297ea6" stroke="#297ea6"></path><path d="M668 0L638 0L627 122Z" fill="#112e42" stroke="#112e42"></path><path d="M416 0L289 0L292 67Z" fill="#205a7a" stroke="#205a7a"></path><path d="M119 124L137 183L203 174Z" fill="#19435d" stroke="#19435d"></path><path d="M203 174L137 183L212 265Z" fill="#205a7a" stroke="#205a7a"></path><path d="M119 124L203 174L239 89Z" fill="#205a7a" stroke="#205a7a"></path><path d="M777 0L668 0L715 114Z" fill="#15384f" stroke="#15384f"></path><path d="M179 402L201 516L332 398Z" fill="#081a28" stroke="#081a28"></path><path d="M627 535L766 524L675 469Z" fill="#246688" stroke="#246688"></path><path d="M766 524L811 395L691 418Z" fill="#19435d" stroke="#19435d"></path><path d="M464 600L635 600L505 520Z" fill="#15384f" stroke="#15384f"></path><path d="M766 524L691 418L675 469Z" fill="#112e42" stroke="#112e42"></path><path d="M900 114L833 70L766 162Z" fill="#246688" stroke="#246688"></path><path d="M201 516L294 600L319 530Z" fill="#0c2435" stroke="#0c2435"></path><path d="M137 183L96 319L212 265Z" fill="#205a7a" stroke="#205a7a"></path><path d="M179 402L96 539L201 516Z" fill="#246688" stroke="#246688"></path><path d="M635 600L669 600L627 535Z" fill="#0c2435" stroke="#0c2435"></path><path d="M669 600L766 524L627 535Z" fill="#297ea6" stroke="#297ea6"></path><path d="M184 0L119 124L239 89Z" fill="#0c2435" stroke="#0c2435"></path><path d="M137 183L0 278L96 319Z" fill="#00101c" stroke="#00101c"></path><path d="M96 319L90 382L179 402Z" fill="#297ea6" stroke="#297ea6"></path><path d="M289 0L184 0L239 89Z" fill="#1d4e6b" stroke="#1d4e6b"></path><path d="M833 70L715 114L766 162Z" fill="#1d4e6b" stroke="#1d4e6b"></path><path d="M833 70L777 0L715 114Z" fill="#246688" stroke="#246688"></path><path d="M900 172L766 162L770 301Z" fill="#081a28" stroke="#081a28"></path><path d="M96 539L175 600L201 516Z" fill="#0c2435" stroke="#0c2435"></path><path d="M201 516L175 600L294 600Z" fill="#205a7a" stroke="#205a7a"></path><path d="M900 369L900 322L811 395Z" fill="#00101c" stroke="#00101c"></path><path d="M811 395L900 322L770 301Z" fill="#1d4e6b" stroke="#1d4e6b"></path><path d="M900 486L900 369L811 395Z" fill="#081a28" stroke="#081a28"></path><path d="M900 322L900 172L770 301Z" fill="#297ea6" stroke="#297ea6"></path><path d="M669 600L783 600L766 524Z" fill="#0c2435" stroke="#0c2435"></path><path d="M766 524L900 486L811 395Z" fill="#19435d" stroke="#19435d"></path><path d="M90 382L96 539L179 402Z" fill="#15384f" stroke="#15384f"></path><path d="M900 172L900 114L766 162Z" fill="#246688" stroke="#246688"></path><path d="M833 70L900 0L777 0Z" fill="#081a28" stroke="#081a28"></path><path d="M0 187L137 183L119 124Z" fill="#081a28" stroke="#081a28"></path><path d="M0 187L0 278L137 183Z" fill="#0c2435" stroke="#0c2435"></path><path d="M96 319L0 365L90 382Z" fill="#0c2435" stroke="#0c2435"></path><path d="M90 382L0 481L96 539Z" fill="#00101c" stroke="#00101c"></path><path d="M0 278L0 365L96 319Z" fill="#0c2435" stroke="#0c2435"></path><path d="M900 600L900 486L766 524Z" fill="#081a28" stroke="#081a28"></path><path d="M0 114L0 187L119 124Z" fill="#205a7a" stroke="#205a7a"></path><path d="M96 539L95 600L175 600Z" fill="#0c2435" stroke="#0c2435"></path><path d="M0 600L95 600L96 539Z" fill="#19435d" stroke="#19435d"></path><path d="M184 0L60 0L119 124Z" fill="#00101c" stroke="#00101c"></path><path d="M60 0L0 114L119 124Z" fill="#205a7a" stroke="#205a7a"></path><path d="M0 365L0 481L90 382Z" fill="#0c2435" stroke="#0c2435"></path><path d="M900 114L900 0L833 70Z" fill="#277297" stroke="#277297"></path><path d="M783 600L900 600L766 524Z" fill="#246688" stroke="#246688"></path><path d="M60 0L0 0L0 114Z" fill="#205a7a" stroke="#205a7a"></path><path d="M0 481L0 600L96 539Z" fill="#00101c" stroke="#00101c"></path></g></svg>