<svg id="visual" viewBox="0 0 900 600" width="900" height="600" xmlns="http://www.w3.org/2000/svg" xmlns:xlink="http://www.w3.org/1999/xlink" version="1.1"><path d="M0 91L82 103L164 97L245 127L327 127L409 199L491 193L573 133L655 157L736 181L818 103L900 199L900 0L818 0L736 0L655 0L573 0L491 0L409 0L327 0L245 0L164 0L82 0L0 0Z" fill="#00cc8e"></path><path d="M0 169L82 175L164 163L245 169L327 223L409 295L491 277L573 187L655 247L736 235L818 157L900 235L900 197L818 101L736 179L655 155L573 131L491 191L409 197L327 125L245 125L164 95L82 101L0 89Z" fill="#00b98a"></path><path d="M0 343L82 289L164 235L245 283L327 301L409 367L491 409L573 301L655 355L736 325L818 289L900 367L900 233L818 155L736 233L655 245L573 185L491 275L409 293L327 221L245 167L164 161L82 173L0 167Z" fill="#00a784"></path><path d="M0 559L82 475L164 475L245 529L327 487L409 517L491 505L573 511L655 559L736 553L818 475L900 475L900 365L818 287L736 323L655 353L573 299L491 407L409 365L327 299L245 281L164 233L82 287L0 341Z" fill="#00957c"></path><path d="M0 601L82 601L164 601L245 601L327 601L409 601L491 601L573 601L655 601L736 601L818 601L900 601L900 473L818 473L736 551L655 557L573 509L491 503L409 515L327 485L245 527L164 473L82 473L0 557Z" fill="#038373"></path></svg>